<svg xmlns="http://www.w3.org/2000/svg" viewBox="0 12.199999809265137 239.1999969482422 50.70000076293945" data-asc="1.036" width="239.1999969482422" height="50.70000076293945"><defs/><g fill="#000000"><g transform="translate(0, 0)"><path d="M8.40 51.80L2.10 32.20L0 32.20L0 24.00L15.45 24.00L15.45 32.20L13.35 32.20L16 42.10L16.50 42.10L19.15 32.20L17.05 32.20L17.05 24.00L31.55 24.00L31.55 32.20L29.45 32.20L23.30 51.80L8.40 51.80ZM48.55 52.50Q43.75 52.50 39.48 51.68Q35.20 50.85 32.90 49.80L32.90 39.90L43.90 39.90Q43.90 41.45 44.60 42.15Q45.30 42.85 47.15 42.85Q48.70 42.85 49.38 42.38Q50.05 41.90 50.05 40.95Q50.05 40.15 49.40 39.58Q48.75 39 47.15 38.40L42.85 36.90Q37.30 34.80 34.88 31.95Q32.45 29.10 32.45 24.25Q32.45 18.35 36.33 15.28Q40.20 12.20 49.25 12.20Q53.60 12.20 57.43 13.08Q61.25 13.95 63.60 15.40L63.60 24.35L53.60 24.35Q53.60 21.85 50.50 21.85Q49 21.85 48.38 22.23Q47.75 22.60 47.75 23.55Q47.75 24.40 48.48 24.90Q49.20 25.40 50.85 25.95L55.20 27.45Q60.50 29.25 62.93 32.13Q65.35 35 65.35 39.65Q65.35 46 61.08 49.25Q56.80 52.50 48.55 52.50ZM81.60 52.50Q74.45 52.50 70.45 48.78Q66.45 45.05 66.45 37.90Q66.45 30.75 70.45 27.03Q74.45 23.30 81.55 23.30Q85 23.30 88.15 24.25Q91.30 25.20 93.05 26.40L93.05 36.30L84.45 36.30L84.45 35.40Q84.45 33.75 83.75 32.98Q83.05 32.20 81.55 32.20Q78.65 32.20 78.65 35.40L78.65 39.70Q78.65 43.60 83.10 43.60Q87.25 43.60 92.75 42.70L92.75 50.55Q91.05 51.30 87.97 51.90Q84.90 52.50 81.60 52.50ZM116.10 23.30Q117.10 23.30 118 23.50Q118.90 23.70 119.50 24.00L119.50 33.55Q117.45 32.70 115.10 32.70Q111.95 32.70 110.25 34.35Q108.55 36 108.55 39.25L108.55 43.60L113.05 43.60L113.05 51.80L94.85 51.80L94.85 43.60L97.05 43.60L97.05 32.20L94.85 32.20L94.85 24.00L108.55 24.00L108.55 27.65Q109.95 25.55 111.75 24.43Q113.55 23.30 116.10 23.30ZM150.25 43.60L150.25 51.80L137.05 51.80L137.05 48.40Q135.95 50.00 133.97 51.25Q132 52.50 129.15 52.50Q125.40 52.50 123.25 50.50Q121.10 48.50 121.10 44.85Q121.10 35.40 137.15 35.15Q137 33.45 135.85 32.83Q134.70 32.20 131.95 32.20Q129.70 32.20 127.12 32.68Q124.55 33.15 122.40 33.95L122.40 24.75Q125.05 24.10 128.15 23.70Q131.25 23.30 134.20 23.30Q141.65 23.30 144.85 26.00Q148.05 28.70 148.05 34.35L148.05 43.60L150.25 43.60M137.05 40.10Q134.80 40.10 133.57 40.70Q132.35 41.30 132.35 42.70Q132.35 43.55 132.88 44.08Q133.40 44.60 134.35 44.60Q135.65 44.60 136.35 43.50Q137.05 42.40 137.05 40.40L137.05 40.10ZM151.65 54.70L153.85 54.70L153.85 32.20L151.65 32.20L151.65 24.00L165.35 24.00L165.35 27.40Q166.60 25.80 168.57 24.55Q170.55 23.30 173.10 23.30Q178.20 23.30 180.77 27.10Q183.35 30.90 183.35 37.90Q183.35 44.90 180.77 48.70Q178.20 52.50 173.10 52.50Q170.55 52.50 168.57 51.25Q166.60 50.00 165.35 48.40L165.35 54.70L168.80 54.70L168.80 62.90L151.65 62.90L151.65 54.70M168.25 43.60Q169.70 43.60 170.42 42.83Q171.15 42.05 171.15 40.40L171.15 35.40Q171.15 33.75 170.42 32.98Q169.70 32.20 168.25 32.20Q166.80 32.20 166.07 32.98Q165.35 33.75 165.35 35.40L165.35 40.40Q165.35 42.05 166.07 42.83Q166.80 43.60 168.25 43.60ZM199.65 52.50Q192.55 52.50 188.55 48.78Q184.55 45.05 184.55 37.90Q184.55 30.75 188.55 27.03Q192.55 23.30 199.65 23.30Q206.70 23.30 209.82 26.98Q212.95 30.65 212.95 36.10L212.95 39.70L196.75 39.70L196.75 40Q196.75 41.85 197.85 42.73Q198.95 43.60 201.50 43.60Q204.55 43.60 207.30 43.15Q210.05 42.70 212.10 42L212.10 50.00Q210.35 50.95 206.97 51.73Q203.60 52.50 199.65 52.50M202.55 34.20L202.55 33.60Q202.55 31.90 201.82 31.15Q201.10 30.40 199.65 30.40Q198.20 30.40 197.47 31.18Q196.75 31.95 196.75 33.60L196.75 34.20L202.55 34.20ZM235.80 23.30Q236.80 23.30 237.70 23.50Q238.60 23.70 239.20 24.00L239.20 33.55Q237.15 32.70 234.80 32.70Q231.65 32.70 229.95 34.35Q228.25 36 228.25 39.25L228.25 43.60L232.75 43.60L232.75 51.80L214.55 51.80L214.55 43.60L216.75 43.60L216.75 32.20L214.55 32.20L214.55 24.00L228.25 24.00L228.25 27.65Q229.65 25.55 231.45 24.43Q233.25 23.30 235.80 23.30Z"/></g></g></svg>